<svg width="776" height="362" viewBox="0 0 776 362" fill="none" xmlns="http://www.w3.org/2000/svg">
<path d="M123.395 117.408C126.139 115.823 129.52 115.823 132.264 117.408L184.843 147.764C187.587 149.348 189.277 152.276 189.277 155.445V216.157C189.277 219.326 187.587 222.254 184.843 223.838L132.264 254.194C129.52 255.779 126.139 255.779 123.395 254.194L70.8169 223.838C68.0728 222.254 66.3823 219.326 66.3823 216.157V155.445C66.3823 152.276 68.0728 149.348 70.8169 147.764L123.395 117.408Z" fill="#F9BB0F"/>
<path d="M106.88 142.012C106.043 142.012 105.316 142.587 105.124 143.402L103.552 150.064C100.918 150.675 98.4495 151.71 96.222 153.1L90.4 149.502C89.6872 149.062 88.7671 149.167 88.1747 149.761L85.0943 152.84C84.5043 153.43 84.3978 154.354 84.8369 155.066L88.4361 160.886C87.0462 163.115 86.009 165.583 85.3984 168.218L78.7377 169.789C77.9228 169.982 77.3472 170.707 77.3472 171.545V175.901C77.3472 176.736 77.924 177.464 78.7377 177.658L85.3984 179.229C86.009 181.863 87.0446 184.331 88.4345 186.559L84.8369 192.381C84.3966 193.093 84.5035 194.013 85.0959 194.606L88.1755 197.686C88.7655 198.276 89.688 198.384 90.4 197.944L96.222 194.346C98.4491 195.736 100.918 196.772 103.552 197.382L105.124 204.044C105.316 204.858 106.043 205.433 106.88 205.433H111.236C112.072 205.433 112.8 204.858 112.992 204.044L114.564 197.382C117.198 196.772 119.667 195.735 121.895 194.345L127.716 197.944C128.428 198.384 129.349 198.277 129.94 197.686L133.02 194.606C133.612 194.013 133.719 193.094 133.279 192.381L129.68 186.559C131.07 184.331 132.105 181.861 132.716 179.227L139.378 177.656C140.193 177.464 140.768 176.737 140.768 175.901V171.545C140.768 170.708 140.194 169.982 139.378 169.789L132.716 168.216C132.106 165.583 131.07 163.114 129.68 160.886L133.279 155.064C133.719 154.353 133.612 153.431 133.02 152.84L129.94 149.761C129.349 149.169 128.429 149.061 127.716 149.501L121.894 153.1C119.667 151.71 117.196 150.675 114.564 150.064L112.992 143.402C112.8 142.587 112.072 142.012 111.236 142.012H106.88ZM109.057 157.049C118.268 157.049 125.733 164.514 125.733 173.723C125.733 182.931 118.268 190.398 109.057 190.398C99.8496 190.398 92.3837 182.931 92.3837 173.723C92.3837 164.514 99.8496 157.049 109.057 157.049ZM156.896 161.799C156.367 161.799 155.907 162.163 155.786 162.678L154.793 166.889C153.128 167.275 151.568 167.928 150.16 168.807L146.481 166.533C146.03 166.255 145.448 166.321 145.074 166.696L143.127 168.643C142.755 169.016 142.687 169.599 142.964 170.049L145.239 173.728C144.36 175.136 143.705 176.697 143.319 178.361L139.11 179.355C138.595 179.476 138.231 179.935 138.231 180.464V183.218C138.231 183.745 138.596 184.205 139.11 184.327L143.319 185.32C143.705 186.985 144.36 188.545 145.239 189.953L142.964 193.633C142.686 194.083 142.754 194.664 143.128 195.038L145.075 196.985C145.448 197.358 146.031 197.426 146.48 197.149L150.159 194.874C151.567 195.752 153.128 196.407 154.793 196.793L155.786 201.004C155.907 201.518 156.367 201.882 156.896 201.882H159.649C160.177 201.882 160.637 201.518 160.759 201.004L161.753 196.793C163.417 196.407 164.977 195.752 166.385 194.873L170.064 197.149C170.515 197.427 171.097 197.358 171.47 196.985L173.416 195.039C173.79 194.665 173.859 194.084 173.581 193.633L171.305 189.953C172.184 188.545 172.839 186.984 173.225 185.32L177.435 184.327C177.95 184.205 178.313 183.746 178.313 183.217V180.464C178.313 179.935 177.95 179.476 177.435 179.354L173.225 178.361C172.839 176.697 172.184 175.135 171.306 173.728L173.581 170.048C173.859 169.598 173.79 169.016 173.417 168.643L171.47 166.696C171.097 166.322 170.515 166.254 170.064 166.532L166.385 168.807C164.977 167.928 163.416 167.275 161.753 166.889L160.759 162.678C160.637 162.163 160.177 161.799 159.649 161.799H156.896ZM158.272 171.303C164.093 171.303 168.811 176.021 168.811 181.841C168.811 187.66 164.093 192.379 158.272 192.379C152.453 192.379 147.735 187.66 147.735 181.841C147.735 176.021 152.453 171.303 158.272 171.303ZM135.587 194.778C135.058 194.778 134.598 195.141 134.477 195.657L133.483 199.867C131.819 200.253 130.259 200.907 128.851 201.786L125.171 199.512C124.721 199.234 124.139 199.3 123.765 199.676L121.818 201.622C121.445 201.995 121.377 202.578 121.655 203.028L123.93 206.707C123.051 208.115 122.396 209.676 122.01 211.34L117.801 212.334C117.286 212.456 116.922 212.914 116.922 213.443V216.196C116.922 216.724 117.287 217.184 117.801 217.306L122.01 218.299C122.396 219.964 123.051 221.524 123.929 222.933L121.655 226.612C121.377 227.062 121.445 227.643 121.819 228.017L123.766 229.964C124.139 230.337 124.722 230.405 125.171 230.128L128.85 227.853C130.258 228.731 131.818 229.386 133.483 229.772L134.477 233.982C134.598 234.496 135.058 234.86 135.587 234.86H138.34C138.868 234.86 139.327 234.496 139.449 233.982L140.443 229.772C142.108 229.386 143.668 228.731 145.076 227.853L148.755 230.127C149.205 230.405 149.787 230.337 150.16 229.964L152.107 228.017C152.481 227.643 152.549 227.062 152.271 226.611L149.996 222.933C150.875 221.524 151.529 219.963 151.915 218.299L156.126 217.305C156.64 217.184 157.004 216.724 157.004 216.195V213.443C157.004 212.915 156.641 212.456 156.126 212.333L151.915 211.339C151.529 209.676 150.875 208.114 149.996 206.707L152.271 203.028C152.549 202.578 152.481 201.995 152.107 201.622L150.16 199.676C149.787 199.301 149.205 199.233 148.755 199.512L145.075 201.786C143.668 200.907 142.107 200.253 140.443 199.867L139.449 195.657C139.327 195.141 138.868 194.778 138.34 194.778H135.587ZM136.963 204.281C142.784 204.281 147.502 209 147.502 214.82C147.502 220.64 142.784 225.358 136.963 225.358C131.143 225.358 126.425 220.64 126.425 214.82C126.425 209 131.143 204.281 136.963 204.281Z" fill="white"/>
<path d="M189.277 3.31473C192.021 1.73039 195.402 1.73039 198.146 3.31473L250.725 33.6709C253.469 35.2553 255.159 38.1832 255.159 41.3519V102.064C255.159 105.233 253.469 108.161 250.725 109.745L198.146 140.101C195.402 141.686 192.021 141.686 189.277 140.101L136.699 109.745C133.955 108.161 132.264 105.233 132.264 102.064V41.3519C132.264 38.1832 133.955 35.2553 136.699 33.6709L189.277 3.31473Z" fill="#68C72D"/>
<path d="M210.469 127.866C211.356 127.354 211.777 126.3 211.486 125.317L199.523 84.9111C199.212 83.8601 199.729 82.7561 200.64 82.1471C204.041 79.8752 206.281 76.0028 206.281 71.6063C206.281 64.6087 200.608 58.936 193.61 58.936C186.613 58.936 180.94 64.6087 180.94 71.6063C180.94 76.1215 183.302 80.0839 186.858 82.3274C187.807 82.9264 188.357 84.054 188.038 85.1302L176.11 125.416C175.819 126.399 176.24 127.453 177.127 127.966L192.603 136.901C193.289 137.297 194.135 137.297 194.821 136.901L210.469 127.866Z" fill="white"/>
<path d="M214.363 119.416C214.204 118.878 214.472 118.306 214.982 118.072C232.527 110.01 244.709 92.2815 244.709 71.7079C244.709 43.5425 221.877 20.71 193.711 20.71C165.546 20.71 142.713 43.5425 142.713 71.7079C142.713 92.3496 154.977 110.127 172.615 118.152C173.127 118.385 173.397 118.958 173.237 119.497C173.049 120.134 172.346 120.465 171.741 120.191C153.313 111.826 140.496 93.2638 140.496 71.7079C140.496 42.318 164.321 18.4927 193.711 18.4927C223.101 18.4927 246.927 42.318 246.927 71.7079C246.927 93.1928 234.194 111.704 215.864 120.108C215.258 120.385 214.553 120.054 214.363 119.416Z" fill="white"/>
<path d="M211.631 110.187C211.92 111.164 213.009 111.659 213.915 111.195C228.249 103.846 238.057 88.9225 238.057 71.7079C238.057 47.2163 218.203 27.3619 193.711 27.3619C169.22 27.3619 149.365 47.2163 149.365 71.7079C149.365 88.9955 159.257 103.973 173.69 111.288C174.596 111.747 175.679 111.251 175.967 110.277C176.202 109.483 175.819 108.64 175.082 108.264C161.791 101.477 152.691 87.6551 152.691 71.7079C152.691 49.0532 171.057 30.6878 193.711 30.6878C216.366 30.6878 234.731 49.0532 234.731 71.7079C234.731 87.5876 225.708 101.36 212.509 108.177C211.776 108.556 211.397 109.396 211.631 110.187Z" fill="white"/>
<path d="M208.865 100.846C209.263 102.188 210.782 102.847 211.981 102.125C222.292 95.9188 229.188 84.6188 229.188 71.7079C229.188 52.1146 213.305 36.2311 193.711 36.2311C174.118 36.2311 158.235 52.1146 158.235 71.7079C158.235 84.6951 165.213 96.0524 175.625 102.235C176.824 102.946 178.333 102.287 178.729 100.949C179.033 99.9229 178.565 98.8319 177.65 98.2772C168.67 92.8371 162.669 82.9733 162.669 71.7079C162.669 54.5638 176.567 40.6657 193.711 40.6657C210.856 40.6657 224.754 54.5638 224.754 71.7079C224.754 82.9065 218.824 92.72 209.933 98.1799C209.025 98.7375 208.563 99.8239 208.865 100.846Z" fill="white"/>
<path d="M57.513 3.31472C60.2571 1.73039 63.6381 1.73039 66.3822 3.31473L118.961 33.6709C121.705 35.2553 123.395 38.1832 123.395 41.3519V102.064C123.395 105.233 121.705 108.161 118.961 109.745L66.3822 140.101C63.6381 141.686 60.2571 141.686 57.513 140.101L4.9346 109.745C2.19046 108.161 0.5 105.233 0.5 102.064V41.3519C0.5 38.1832 2.19046 35.2553 4.9346 33.6709L57.513 3.31472Z" fill="#137EE2"/>
<path d="M118.96 42.8592H114.932V46.1972H118.96V42.8592Z" fill="white"/>
<path d="M118.96 51.8022C117.491 52.065 116.329 52.7624 115.475 53.8945C114.362 55.3688 113.806 57.5454 113.806 60.4245C113.806 63.3036 114.362 65.4803 115.475 66.9546C116.329 68.0866 117.491 68.784 118.96 69.0468V65.5701C118.61 65.3449 118.317 65.0206 118.083 64.5971C118.031 64.5017 117.981 64.4011 117.935 64.2955L118.96 63.5195V59.8685L117.343 61.0921C117.335 60.8768 117.332 60.6542 117.332 60.4245C117.332 58.5608 117.582 57.1769 118.083 56.2728C118.317 55.8427 118.61 55.5134 118.96 55.2848V51.8022Z" fill="white"/>
<path d="M118.96 74.6518H118.124L114.932 76.6546V80.4099L118.96 77.7581V74.6518Z" fill="white"/>
<path d="M118.96 88.0039H114.932V91.342H118.96V88.0039Z" fill="white"/>
<path d="M118.96 97.2241H118.124L114.932 99.227V102.982L118.96 100.33V97.2241Z" fill="white"/>
<path d="M108.652 110.576H106.103V97.2241H101.43L98.2382 99.227V102.982L102.578 100.125V110.576H98.2382V113.914H102.87L108.652 110.576Z" fill="white"/>
<path d="M91.064 120.73C90.0195 119.844 88.6611 119.4 86.989 119.4C84.8332 119.4 83.199 120.137 82.0863 121.612C81.146 122.858 80.603 124.605 80.4573 126.854L84.4358 124.557C84.5129 124.351 84.599 124.162 84.6941 123.99C85.1948 123.072 85.9598 122.613 86.989 122.613C87.2311 122.613 87.4586 122.638 87.6715 122.689L91.064 120.73Z" fill="white"/>
<path d="M72.7148 131.324V119.797H68.0416L64.8496 121.799V125.555L69.189 122.698V133.149H64.8496V135.865L72.7148 131.324Z" fill="white"/>
<path fill-rule="evenodd" clip-rule="evenodd" d="M57.9943 135.259C58.1746 135.078 58.3442 134.882 58.5032 134.672C59.6159 133.197 60.1722 131.021 60.1722 128.142C60.1722 125.263 59.6159 123.086 58.5032 121.612C57.3905 120.137 55.7563 119.4 53.6005 119.4C51.4447 119.4 49.8104 120.137 48.6977 121.612C47.585 123.086 47.0287 125.263 47.0287 128.142C47.0287 128.413 47.0336 128.677 47.0435 128.936L51.6833 131.615L56.6445 127.861C56.6458 127.954 56.6464 128.047 56.6464 128.142C56.6464 130.005 56.3961 131.396 55.8954 132.314C55.6131 132.824 55.2468 133.19 54.7965 133.412L57.9943 135.259ZM50.5659 128.809L56.1608 124.576C56.0819 124.363 55.9935 124.167 55.8954 123.99C55.3947 123.072 54.6297 122.613 53.6005 122.613C52.5712 122.613 51.8063 123.072 51.3056 123.99C50.8049 124.894 50.5545 126.278 50.5545 128.142C50.5545 128.371 50.5583 128.594 50.5659 128.809Z" fill="white"/>
<path d="M43.4379 126.854C43.2923 124.605 42.7493 122.858 41.8089 121.612C40.6963 120.137 39.062 119.4 36.9062 119.4C35.2341 119.4 33.8757 119.844 32.8312 120.731L36.2237 122.689C36.4365 122.638 36.6641 122.613 36.9062 122.613C37.9354 122.613 38.7004 123.072 39.2011 123.99C39.2962 124.162 39.3824 124.351 39.4594 124.557L43.4379 126.854Z" fill="white"/>
<path d="M21.0252 113.914H26.4916V110.576H22.632V97.2241H17.9587L14.7667 99.227V102.982L19.1062 100.125V110.576H15.2435L21.0252 113.914Z" fill="white"/>
<path d="M9.99083 107.544C10.0565 106.927 10.0894 106.269 10.0894 105.569C10.0894 102.69 9.53304 100.514 8.42036 99.0392C7.56596 97.9071 6.40403 97.2097 4.93457 96.9469V100.429C5.28524 100.658 5.57789 100.987 5.81251 101.418C5.91059 101.595 5.99906 101.79 6.07792 102.004L4.99937 102.82C5.17129 103.814 5.67799 104.72 6.43227 105.387L6.56164 105.289C6.5626 105.358 6.56321 105.428 6.56345 105.498C6.74666 105.648 6.94317 105.784 7.15187 105.905L9.99083 107.544Z" fill="white"/>
<path d="M4.93457 91.6192C6.40403 91.3564 7.56596 90.659 8.42036 89.5269C9.53304 88.0526 10.0894 85.8759 10.0894 82.9969C10.0894 80.1178 9.53304 77.9411 8.42036 76.4668C7.56596 75.3348 6.40403 74.6373 4.93457 74.3745V77.8571C5.28524 78.0857 5.57789 78.4151 5.81251 78.8452C5.91059 79.0223 5.99906 79.2178 6.07792 79.4317L4.93457 80.2967V83.9476L6.56164 82.7167C6.56293 82.8088 6.56357 82.9022 6.56357 82.9969C6.56357 84.8606 6.31322 86.2515 5.81251 87.1694C5.57789 87.5931 5.28524 87.9174 4.93457 88.1426V91.6192Z" fill="white"/>
<path d="M4.93457 69.0468C6.40403 68.7841 7.56596 68.0866 8.42036 66.9546C9.53304 65.4803 10.0894 63.3036 10.0894 60.4245C10.0894 57.5454 9.53304 55.3688 8.42036 53.8945C7.56596 52.7624 6.40403 52.0649 4.93457 51.8022V55.2847C5.28524 55.5133 5.57789 55.8427 5.81251 56.2728C5.91059 56.4499 5.99906 56.6454 6.07792 56.8593L4.93457 57.7243V61.3753L6.56164 60.1443C6.56293 60.2365 6.56357 60.3299 6.56357 60.4245C6.56357 62.2882 6.31322 63.6791 5.81251 64.5971C5.57789 65.0207 5.28524 65.3451 4.93457 65.5702V69.0468Z" fill="white"/>
<path d="M4.93457 46.4745C6.40403 46.2117 7.56596 45.5143 8.42036 44.3822C9.53304 42.9079 10.0894 40.7312 10.0894 37.8521C10.0894 37.1515 10.0564 36.4925 9.99055 35.8751L7.02559 37.5869C6.8635 37.6878 6.70927 37.7983 6.56347 37.9174C6.55768 39.7484 6.30736 41.1175 5.81251 42.0247C5.57789 42.4483 5.28524 42.7727 4.93457 42.9978V46.4745Z" fill="white"/>
<path fill-rule="evenodd" clip-rule="evenodd" d="M65.392 8.7497C65.5515 8.53837 65.7217 8.34218 65.9027 8.16113L69.105 10.01C68.6518 10.2354 68.2835 10.6081 67.9999 11.1281C67.4991 12.0321 67.2488 13.416 67.2488 15.2798C67.2488 15.5095 67.2526 15.732 67.2602 15.9474L72.5098 11.9758L76.8516 14.4825C76.8616 14.742 76.8665 15.0077 76.8665 15.2798C76.8665 18.1588 76.3102 20.3355 75.1975 21.8098C74.0848 23.2841 72.4506 24.0213 70.2948 24.0213C68.1389 24.0213 66.5047 23.2841 65.392 21.8098C64.2793 20.3355 63.723 18.1588 63.723 15.2798C63.723 12.4007 64.2793 10.224 65.392 8.7497ZM72.5897 19.4523C72.089 20.3564 71.324 20.8084 70.2948 20.8084C69.2655 20.8084 68.5006 20.3564 67.9999 19.4523C67.9478 19.3569 67.8985 19.2564 67.8518 19.1508L73.3388 14.9995C73.3401 15.0917 73.3407 15.1851 73.3407 15.2798C73.3407 17.1435 73.0904 18.5343 72.5897 19.4523Z" fill="white"/>
<path d="M82.0863 21.8098C81.1456 20.5633 80.6025 18.8148 80.4571 16.5642L84.7154 19.0227L84.5461 19.1508C84.5928 19.2564 84.6421 19.3569 84.6941 19.4523C85.1948 20.3564 85.9598 20.8084 86.989 20.8084C87.233 20.8084 87.4621 20.783 87.6763 20.7322L91.066 22.6892C90.0212 23.5772 88.6622 24.0213 86.989 24.0213C84.8332 24.0213 83.199 23.2841 82.0863 21.8098Z" fill="white"/>
<path fill-rule="evenodd" clip-rule="evenodd" d="M102.365 29.2128L109.651 33.4195C110.054 34.643 110.255 36.1205 110.255 37.8521C110.255 40.7312 109.699 42.9079 108.586 44.3822C107.473 45.8565 105.839 46.5936 103.683 46.5936C101.528 46.5936 99.8933 45.8565 98.7806 44.3822C97.6679 42.9079 97.1116 40.7312 97.1116 37.8521C97.1116 34.9731 97.6679 32.7964 98.7806 31.3221C99.654 30.1647 100.849 29.4617 102.365 29.2128ZM103.683 43.3808C104.713 43.3808 105.478 42.9287 105.978 42.0247C106.479 41.1067 106.729 39.7159 106.729 37.8521L106.729 37.7571L106.729 37.7008L106.728 37.6348L106.727 37.5719L101.24 41.7231C101.287 41.8288 101.336 41.9293 101.388 42.0247C101.889 42.9287 102.654 43.3808 103.683 43.3808ZM100.649 38.5198L106.244 34.2869C106.165 34.073 106.076 33.8775 105.978 33.7004C105.478 32.7825 104.713 32.3235 103.683 32.3235C102.654 32.3235 101.889 32.7825 101.388 33.7004C100.888 34.6045 100.637 35.9884 100.637 37.8521C100.637 38.0819 100.641 38.3044 100.649 38.5198Z" fill="white"/>
<path d="M21.0204 29.507L14.7667 33.1176V35.2651L19.1062 32.4083V42.8592H14.7667V46.1972H26.4916V42.8592H22.632V29.507H21.0204Z" fill="white"/>
<path d="M31.461 23.4791L39.3263 18.9381V20.2868H43.1859V23.6249H31.461V23.4791Z" fill="white"/>
<path d="M52.4947 20.2868V11.3353L56.0206 9.29962V20.2868H59.8802V23.6249H48.1553V20.2868H52.4947Z" fill="white"/>
<path d="M39.3263 29.507V42.8592H43.1859V46.1972H31.461V42.8592H35.8005V32.4083L31.461 35.2651V31.5098L34.653 29.507H39.3263Z" fill="white"/>
<path fill-rule="evenodd" clip-rule="evenodd" d="M53.6005 46.5936C51.4447 46.5936 49.8104 45.8565 48.6977 44.3822C47.585 42.9079 47.0287 40.7312 47.0287 37.8521C47.0287 34.9731 47.585 32.7964 48.6977 31.3221C49.8104 29.8478 51.4447 29.1106 53.6005 29.1106C55.7563 29.1106 57.3905 29.8478 58.5032 31.3221C59.6159 32.7964 60.1722 34.9731 60.1722 37.8521C60.1722 40.7312 59.6159 42.9079 58.5032 44.3822C57.3905 45.8565 55.7563 46.5936 53.6005 46.5936ZM53.6005 43.3808C54.6297 43.3808 55.3947 42.9287 55.8954 42.0247C56.3961 41.1067 56.6464 39.7159 56.6464 37.8521C56.6464 37.7575 56.6458 37.6641 56.6445 37.5719L51.1576 41.7231C51.2042 41.8288 51.2535 41.9293 51.3056 42.0247C51.8063 42.9287 52.5712 43.3808 53.6005 43.3808ZM50.5659 38.5198L56.1608 34.2869C56.0819 34.073 55.9935 33.8775 55.8954 33.7004C55.3947 32.7825 54.6297 32.3235 53.6005 32.3235C52.5712 32.3235 51.8063 32.7825 51.3056 33.7004C50.8049 34.6045 50.5545 35.9884 50.5545 37.8521C50.5545 38.0819 50.5583 38.3044 50.5659 38.5198Z" fill="white"/>
<path fill-rule="evenodd" clip-rule="evenodd" d="M70.2948 46.5936C68.1389 46.5936 66.5047 45.8565 65.392 44.3822C64.2793 42.9079 63.723 40.7312 63.723 37.8521C63.723 34.9731 64.2793 32.7964 65.392 31.3221C66.5047 29.8478 68.1389 29.1106 70.2948 29.1106C72.4506 29.1106 74.0848 29.8478 75.1975 31.3221C76.3102 32.7964 76.8665 34.9731 76.8665 37.8521C76.8665 40.7312 76.3102 42.9079 75.1975 44.3822C74.0848 45.8565 72.4506 46.5936 70.2948 46.5936ZM70.2948 43.3808C71.324 43.3808 72.089 42.9287 72.5897 42.0247C73.0904 41.1067 73.3407 39.7159 73.3407 37.8521C73.3407 37.7575 73.3401 37.6641 73.3388 37.5719L67.8518 41.7231C67.8985 41.8288 67.9478 41.9293 67.9999 42.0247C68.5006 42.9287 69.2655 43.3808 70.2948 43.3808ZM67.2602 38.5198L72.8551 34.2869C72.7762 34.073 72.6877 33.8775 72.5897 33.7004C72.089 32.7825 71.324 32.3235 70.2948 32.3235C69.2655 32.3235 68.5006 32.7825 67.9999 33.7004C67.4991 34.6045 67.2488 35.9884 67.2488 37.8521C67.2488 38.0819 67.2526 38.3044 67.2602 38.5198Z" fill="white"/>
<path d="M89.4091 29.507V42.8592H93.2687V46.1972H81.5439V42.8592H85.8833V32.4083L81.5439 35.2651V31.5098L84.7359 29.507H89.4091Z" fill="white"/>
<path d="M22.632 65.4316V52.0794H17.9587L14.7667 54.0822V57.8375L19.1062 54.9807V65.4316H14.7667V68.7696H26.4916V65.4316H22.632Z" fill="white"/>
<path d="M39.3263 65.4316V52.0794H34.653L31.461 54.0822V57.8375L35.8005 54.9807V65.4316H31.461V68.7696H43.1859V65.4316H39.3263Z" fill="white"/>
<path d="M56.0206 65.4316V52.0794H51.3473L48.1553 54.0822V57.8375L52.4947 54.9807V65.4316H48.1553V68.7696H59.8802V65.4316H56.0206Z" fill="white"/>
<path fill-rule="evenodd" clip-rule="evenodd" d="M65.392 66.9546C66.5047 68.4289 68.1389 69.166 70.2948 69.166C72.4506 69.166 74.0848 68.4289 75.1975 66.9546C76.3102 65.4803 76.8665 63.3036 76.8665 60.4245C76.8665 57.5454 76.3102 55.3688 75.1975 53.8945C74.0848 52.4202 72.4506 51.683 70.2948 51.683C68.1389 51.683 66.5047 52.4202 65.392 53.8945C64.2793 55.3688 63.723 57.5454 63.723 60.4245C63.723 63.3036 64.2793 65.4803 65.392 66.9546ZM72.5897 64.5971C72.089 65.5011 71.324 65.9531 70.2948 65.9531C69.2655 65.9531 68.5006 65.5011 67.9999 64.5971C67.9478 64.5017 67.8985 64.4011 67.8518 64.2955L73.3388 60.1443L73.34 60.2528L73.3406 60.3426L73.3407 60.4245C73.3407 62.2882 73.0904 63.6791 72.5897 64.5971ZM72.8551 56.8593L67.2602 61.0921C67.2526 60.8768 67.2488 60.6542 67.2488 60.4245C67.2488 58.5608 67.4991 57.1769 67.9999 56.2728C68.5006 55.3549 69.2655 54.8959 70.2948 54.8959C71.324 54.8959 72.089 55.3549 72.5897 56.2728C72.6877 56.4499 72.7762 56.6454 72.8551 56.8593Z" fill="white"/>
<path d="M89.4091 65.4316V52.0794H84.7359L81.5439 54.0822V57.8375L85.8833 54.9807V65.4316H81.5439V68.7696H93.2687V65.4316H89.4091Z" fill="white"/>
<path fill-rule="evenodd" clip-rule="evenodd" d="M98.7806 66.9546C99.8933 68.4289 101.528 69.166 103.683 69.166C105.839 69.166 107.473 68.4289 108.586 66.9546C109.699 65.4803 110.255 63.3036 110.255 60.4245C110.255 57.5454 109.699 55.3688 108.586 53.8945C107.473 52.4202 105.839 51.683 103.683 51.683C101.528 51.683 99.8933 52.4202 98.7806 53.8945C97.6679 55.3688 97.1116 57.5454 97.1116 60.4245C97.1116 63.3036 97.6679 65.4803 98.7806 66.9546ZM105.978 64.5971C105.478 65.5011 104.713 65.9531 103.683 65.9531C102.654 65.9531 101.889 65.5011 101.388 64.5971C101.336 64.5017 101.287 64.4011 101.24 64.2955L106.727 60.1443C106.729 60.2365 106.729 60.3299 106.729 60.4245C106.729 62.2882 106.479 63.6791 105.978 64.5971ZM106.244 56.8593L100.649 61.0921C100.641 60.8768 100.637 60.6542 100.637 60.4245C100.637 58.5608 100.888 57.1769 101.388 56.2728C101.889 55.3549 102.654 54.8959 103.683 54.8959C104.713 54.8959 105.478 55.3549 105.978 56.2728C106.076 56.4499 106.165 56.6454 106.244 56.8593Z" fill="white"/>
<path d="M22.632 88.0039V74.6518H17.9587L14.7667 76.6546V80.4099L19.1062 77.5531V88.0039H14.7667V91.342H26.4916V88.0039H22.632Z" fill="white"/>
<path d="M39.3263 88.0039V74.6518H34.653L31.461 76.6546V80.4099L35.8005 77.5531V88.0039H31.461V91.342H43.1859V88.0039H39.3263Z" fill="white"/>
<path fill-rule="evenodd" clip-rule="evenodd" d="M48.6977 89.5269C49.8104 91.0012 51.4447 91.7384 53.6005 91.7384C55.7563 91.7384 57.3905 91.0012 58.5032 89.5269C59.6159 88.0526 60.1722 85.8759 60.1722 82.9969C60.1722 80.1178 59.6159 77.9411 58.5032 76.4668C57.3905 74.9925 55.7563 74.2554 53.6005 74.2554C51.4447 74.2554 49.8104 74.9925 48.6977 76.4668C47.585 77.9411 47.0287 80.1178 47.0287 82.9969C47.0287 85.8759 47.585 88.0526 48.6977 89.5269ZM55.8954 87.1694C55.3947 88.0735 54.6297 88.5255 53.6005 88.5255C52.5712 88.5255 51.8063 88.0735 51.3056 87.1694C51.2535 87.074 51.2042 86.9735 51.1576 86.8679L56.6445 82.7167C56.6458 82.8088 56.6464 82.9022 56.6464 82.9969C56.6464 84.8606 56.3961 86.2515 55.8954 87.1694ZM56.1608 79.4317L50.5659 83.6645C50.5583 83.4492 50.5545 83.2266 50.5545 82.9969C50.5545 81.1331 50.8049 79.7493 51.3056 78.8452C51.8063 77.9272 52.5712 77.4682 53.6005 77.4682C54.6297 77.4682 55.3947 77.9272 55.8954 78.8452C55.9935 79.0223 56.0819 79.2178 56.1608 79.4317Z" fill="white"/>
<path fill-rule="evenodd" clip-rule="evenodd" d="M65.392 89.5269C66.5047 91.0012 68.1389 91.7384 70.2948 91.7384C72.4506 91.7384 74.0848 91.0012 75.1975 89.5269C76.3102 88.0526 76.8665 85.8759 76.8665 82.9969C76.8665 80.1178 76.3102 77.9411 75.1975 76.4668C74.0848 74.9925 72.4506 74.2554 70.2948 74.2554C68.1389 74.2554 66.5047 74.9925 65.392 76.4668C64.2793 77.9411 63.723 80.1178 63.723 82.9969C63.723 85.8759 64.2793 88.0526 65.392 89.5269ZM72.5897 87.1694C72.089 88.0735 71.324 88.5255 70.2948 88.5255C69.2655 88.5255 68.5006 88.0735 67.9999 87.1694C67.9478 87.074 67.8985 86.9735 67.8518 86.8679L73.3388 82.7167C73.3401 82.8088 73.3407 82.9022 73.3407 82.9969C73.3407 84.8606 73.0904 86.2515 72.5897 87.1694ZM72.8551 79.4317L67.2602 83.6645C67.2526 83.4492 67.2488 83.2266 67.2488 82.9969C67.2488 81.1331 67.4991 79.7493 67.9999 78.8452C68.5006 77.9272 69.2655 77.4682 70.2948 77.4682C71.324 77.4682 72.089 77.9272 72.5897 78.8452C72.6877 79.0223 72.7762 79.2178 72.8551 79.4317Z" fill="white"/>
<path d="M89.4091 88.0039V74.6518H84.7359L81.5439 76.6546V80.4099L85.8833 77.5531V88.0039H81.5439V91.342H93.2687V88.0039H89.4091Z" fill="white"/>
<path fill-rule="evenodd" clip-rule="evenodd" d="M98.7806 89.5269C99.8933 91.0012 101.528 91.7384 103.683 91.7384C105.839 91.7384 107.473 91.0012 108.586 89.5269C109.699 88.0526 110.255 85.8759 110.255 82.9969C110.255 80.1178 109.699 77.9411 108.586 76.4668C107.473 74.9925 105.839 74.2554 103.683 74.2554C101.528 74.2554 99.8933 74.9925 98.7806 76.4668C97.6679 77.9411 97.1116 80.1178 97.1116 82.9969C97.1116 85.8759 97.6679 88.0526 98.7806 89.5269ZM105.978 87.1694C105.478 88.0735 104.713 88.5255 103.683 88.5255C102.654 88.5255 101.889 88.0735 101.388 87.1694C101.336 87.074 101.287 86.9735 101.24 86.8679L106.727 82.7167C106.729 82.8088 106.729 82.9022 106.729 82.9969C106.729 84.8606 106.479 86.2515 105.978 87.1694ZM106.244 79.4317L100.649 83.6645C100.641 83.4492 100.637 83.2266 100.637 82.9969C100.637 81.1331 100.888 79.7493 101.388 78.8452C101.889 77.9272 102.654 77.4682 103.683 77.4682C104.713 77.4682 105.478 77.9272 105.978 78.8452C106.076 79.0223 106.165 79.2178 106.244 79.4317Z" fill="white"/>
<path d="M39.3263 97.2241V110.576H43.1859V113.914H31.461V110.576H35.8005V100.125L31.461 102.982V99.227L34.653 97.2241H39.3263Z" fill="white"/>
<path fill-rule="evenodd" clip-rule="evenodd" d="M53.6005 114.311C51.4447 114.311 49.8104 113.574 48.6977 112.099C47.585 110.625 47.0287 108.448 47.0287 105.569C47.0287 102.69 47.585 100.514 48.6977 99.0392C49.8104 97.5649 51.4447 96.8278 53.6005 96.8278C55.7563 96.8278 57.3905 97.5649 58.5032 99.0392C59.6159 100.514 60.1722 102.69 60.1722 105.569C60.1722 108.448 59.6159 110.625 58.5032 112.099C57.3905 113.574 55.7563 114.311 53.6005 114.311ZM53.6005 111.098C54.6297 111.098 55.3947 110.646 55.8954 109.742C56.3961 108.824 56.6464 107.433 56.6464 105.569C56.6464 105.475 56.6458 105.381 56.6445 105.289L51.1576 109.44C51.2042 109.546 51.2535 109.646 51.3056 109.742C51.8063 110.646 52.5712 111.098 53.6005 111.098ZM50.5659 106.237L56.1608 102.004C56.0819 101.79 55.9935 101.595 55.8954 101.418C55.3947 100.5 54.6297 100.041 53.6005 100.041C52.5712 100.041 51.8063 100.5 51.3056 101.418C50.8049 102.322 50.5545 103.706 50.5545 105.569C50.5545 105.799 50.5583 106.022 50.5659 106.237Z" fill="white"/>
<path fill-rule="evenodd" clip-rule="evenodd" d="M70.2948 114.311C68.1389 114.311 66.5047 113.574 65.392 112.099C64.2793 110.625 63.723 108.448 63.723 105.569C63.723 102.69 64.2793 100.514 65.392 99.0392C66.5047 97.5649 68.1389 96.8278 70.2948 96.8278C72.4506 96.8278 74.0848 97.5649 75.1975 99.0392C76.3102 100.514 76.8665 102.69 76.8665 105.569C76.8665 108.448 76.3102 110.625 75.1975 112.099C74.0848 113.574 72.4506 114.311 70.2948 114.311ZM70.2948 111.098C71.324 111.098 72.089 110.646 72.5897 109.742C73.0904 108.824 73.3407 107.433 73.3407 105.569C73.3407 105.475 73.3401 105.381 73.3388 105.289L67.8519 109.44C67.8985 109.546 67.9478 109.646 67.9999 109.742C68.5006 110.646 69.2655 111.098 70.2948 111.098ZM67.2602 106.237L72.8551 102.004C72.7762 101.79 72.6877 101.595 72.5897 101.418C72.089 100.5 71.324 100.041 70.2948 100.041C69.2655 100.041 68.5006 100.5 67.9999 101.418C67.4991 102.322 67.2488 103.706 67.2488 105.569C67.2488 105.799 67.2526 106.022 67.2602 106.237Z" fill="white"/>
<path fill-rule="evenodd" clip-rule="evenodd" d="M86.989 114.311C84.8332 114.311 83.199 113.574 82.0863 112.099C80.9736 110.625 80.4173 108.448 80.4173 105.569C80.4173 102.69 80.9736 100.514 82.0863 99.0392C83.199 97.5649 84.8332 96.8278 86.989 96.8278C89.1449 96.8278 90.7791 97.5649 91.8918 99.0392C93.0045 100.514 93.5608 102.69 93.5608 105.569C93.5608 108.448 93.0045 110.625 91.8918 112.099C90.7791 113.574 89.1449 114.311 86.989 114.311ZM86.989 111.098C88.0183 111.098 88.7832 110.646 89.2839 109.742C89.7847 108.824 90.035 107.433 90.035 105.569C90.035 105.523 90.0349 105.476 90.0345 105.43C90.0342 105.383 90.0337 105.336 90.0331 105.289L84.5461 109.44C84.5928 109.546 84.6421 109.646 84.6941 109.742C85.1948 110.646 85.9598 111.098 86.989 111.098ZM83.9545 106.237L89.5493 102.004C89.4705 101.79 89.382 101.595 89.2839 101.418C88.7832 100.5 88.0183 100.041 86.989 100.041C85.9598 100.041 85.1948 100.5 84.6941 101.418C84.1934 102.322 83.9431 103.706 83.9431 105.569C83.9431 105.799 83.9469 106.022 83.9545 106.237Z" fill="white"/>
<path d="M279.16 214.088L315.45 43.4209H394.522C423.391 43.4209 443.913 64.4064 443.913 93.9715C443.913 133.392 413.305 160.754 372.841 160.754H334L322.754 214.088H279.16ZM341.652 124.696H375.623C390.928 124.696 400.899 109.856 400.899 95.015C400.899 86.3195 396.609 79.5948 387.682 79.5948H351.392L341.652 124.696ZM442.174 214.088L478.464 43.4209H613.189L605.189 80.986H513.942L507.565 111.131H587.797L580.377 146.377H500.145L493.768 176.522H587.218L579.218 214.088H442.174ZM644.493 214.088L672.783 80.986H622.116L630.232 43.4209H775.045L767.045 80.986H716.377L688.086 214.088H644.493Z" fill="#283038"/>
<path d="M24.23 289.834C24.23 291.45 23.859 292.934 23.117 294.286C22.3751 295.611 21.2356 296.684 19.6986 297.506C18.1617 298.327 16.2537 298.738 13.9748 298.738H9.76145V308.754H2.96442V280.851H13.9748C16.2007 280.851 18.0822 281.235 19.6191 282.003C21.1561 282.772 22.3088 283.832 23.0773 285.183C23.8458 286.535 24.23 288.085 24.23 289.834ZM13.4581 293.332C14.7565 293.332 15.7238 293.027 16.3597 292.418C16.9957 291.808 17.3137 290.947 17.3137 289.834C17.3137 288.721 16.9957 287.86 16.3597 287.25C15.7238 286.641 14.7565 286.336 13.4581 286.336H9.76145V293.332H13.4581ZM43.5886 308.754L37.7852 298.221H36.1555V308.754H29.3585V280.851H40.7664C42.9658 280.851 44.834 281.235 46.371 282.003C47.9344 282.772 49.1004 283.832 49.8689 285.183C50.6373 286.508 51.0216 287.992 51.0216 289.635C51.0216 291.49 50.4916 293.146 49.4316 294.604C48.3981 296.061 46.8612 297.095 44.8208 297.704L51.2601 308.754H43.5886ZM36.1555 293.411H40.3689C41.6144 293.411 42.5418 293.107 43.1513 292.497C43.7873 291.888 44.1053 291.026 44.1053 289.913C44.1053 288.854 43.7873 288.019 43.1513 287.409C42.5418 286.8 41.6144 286.495 40.3689 286.495H36.1555V293.411ZM70.0749 309.033C67.4515 309.033 65.04 308.423 62.8406 307.204C60.6677 305.985 58.932 304.289 57.6335 302.116C56.3616 299.917 55.7256 297.453 55.7256 294.723C55.7256 291.994 56.3616 289.543 57.6335 287.37C58.932 285.197 60.6677 283.501 62.8406 282.282C65.04 281.063 67.4515 280.453 70.0749 280.453C72.6983 280.453 75.0965 281.063 77.2694 282.282C79.4688 283.501 81.1913 285.197 82.4367 287.37C83.7087 289.543 84.3447 291.994 84.3447 294.723C84.3447 297.453 83.7087 299.917 82.4367 302.116C81.1648 304.289 79.4423 305.985 77.2694 307.204C75.0965 308.423 72.6983 309.033 70.0749 309.033ZM70.0749 302.832C72.3008 302.832 74.0762 302.09 75.4012 300.606C76.7527 299.122 77.4284 297.161 77.4284 294.723C77.4284 292.259 76.7527 290.298 75.4012 288.84C74.0762 287.356 72.3008 286.614 70.0749 286.614C67.8224 286.614 66.0205 287.343 64.669 288.801C63.3441 290.258 62.6816 292.232 62.6816 294.723C62.6816 297.188 63.3441 299.162 64.669 300.646C66.0205 302.103 67.8224 302.832 70.0749 302.832ZM108.239 289.675C107.735 288.748 107.007 288.045 106.053 287.568C105.125 287.065 104.026 286.813 102.754 286.813C100.554 286.813 98.792 287.542 97.467 288.999C96.1421 290.43 95.4796 292.351 95.4796 294.763C95.4796 297.333 96.1686 299.347 97.5465 300.805C98.951 302.236 100.872 302.951 103.31 302.951C104.98 302.951 106.384 302.527 107.523 301.679C108.689 300.831 109.537 299.612 110.067 298.022H101.442V293.014H116.228V299.334C115.725 301.03 114.864 302.607 113.645 304.064C112.452 305.521 110.929 306.701 109.074 307.602C107.219 308.503 105.125 308.953 102.793 308.953C100.037 308.953 97.573 308.357 95.4001 307.164C93.2537 305.945 91.571 304.263 90.352 302.116C89.1595 299.97 88.5633 297.519 88.5633 294.763C88.5633 292.007 89.1595 289.556 90.352 287.409C91.571 285.236 93.2537 283.554 95.4001 282.361C97.5465 281.142 99.9977 280.533 102.754 280.533C106.093 280.533 108.901 281.341 111.18 282.957C113.486 284.574 115.009 286.813 115.751 289.675H108.239ZM135.813 308.754L130.01 298.221H128.38V308.754H121.583V280.851H132.991C135.191 280.851 137.059 281.235 138.596 282.003C140.159 282.772 141.325 283.832 142.094 285.183C142.862 286.508 143.246 287.992 143.246 289.635C143.246 291.49 142.716 293.146 141.656 294.604C140.623 296.061 139.086 297.095 137.046 297.704L143.485 308.754H135.813ZM128.38 293.411H132.594C133.839 293.411 134.767 293.107 135.376 292.497C136.012 291.888 136.33 291.026 136.33 289.913C136.33 288.854 136.012 288.019 135.376 287.409C134.767 286.8 133.839 286.495 132.594 286.495H128.38V293.411ZM166.473 303.826H156.059L154.39 308.754H147.275L157.371 280.851H165.241L175.337 308.754H168.143L166.473 303.826ZM164.724 298.579L161.266 288.363L157.848 298.579H164.724ZM211.6 280.851V308.754H204.803V292.02L198.563 308.754H193.077L186.797 291.98V308.754H180V280.851H188.029L195.86 300.169L203.611 280.851H211.6ZM235.448 303.826H225.034L223.365 308.754H216.25L226.346 280.851H234.216L244.312 308.754H237.118L235.448 303.826ZM233.699 298.579L230.241 288.363L226.823 298.579H233.699ZM269.442 280.851C272.383 280.851 274.954 281.434 277.153 282.6C279.353 283.766 281.049 285.409 282.241 287.529C283.46 289.622 284.07 292.047 284.07 294.803C284.07 297.532 283.46 299.957 282.241 302.077C281.049 304.197 279.34 305.839 277.114 307.005C274.914 308.171 272.357 308.754 269.442 308.754H258.988V280.851H269.442ZM269.005 302.872C271.575 302.872 273.576 302.169 275.007 300.765C276.438 299.36 277.153 297.373 277.153 294.803C277.153 292.232 276.438 290.231 275.007 288.801C273.576 287.37 271.575 286.654 269.005 286.654H265.785V302.872H269.005ZM296.255 286.296V291.941H305.358V297.188H296.255V303.309H306.55V308.754H289.458V280.851H306.55V286.296H296.255ZM329.363 286.296V291.941H338.465V297.188H329.363V303.309H339.658V308.754H322.566V280.851H339.658V286.296H329.363ZM356.115 280.851C359.056 280.851 361.626 281.434 363.826 282.6C366.025 283.766 367.721 285.409 368.914 287.529C370.133 289.622 370.742 292.047 370.742 294.803C370.742 297.532 370.133 299.957 368.914 302.077C367.721 304.197 366.012 305.839 363.786 307.005C361.587 308.171 359.029 308.754 356.115 308.754H345.661V280.851H356.115ZM355.677 302.872C358.248 302.872 360.248 302.169 361.679 300.765C363.11 299.36 363.826 297.373 363.826 294.803C363.826 292.232 363.11 290.231 361.679 288.801C360.248 287.37 358.248 286.654 355.677 286.654H352.458V302.872H355.677ZM382.808 280.851V297.545C382.808 299.215 383.219 300.5 384.04 301.401C384.862 302.302 386.068 302.752 387.658 302.752C389.248 302.752 390.467 302.302 391.314 301.401C392.162 300.5 392.586 299.215 392.586 297.545V280.851H399.383V297.506C399.383 299.996 398.853 302.103 397.794 303.826C396.734 305.548 395.303 306.846 393.501 307.721C391.725 308.595 389.738 309.033 387.538 309.033C385.339 309.033 383.365 308.609 381.616 307.761C379.893 306.886 378.529 305.588 377.522 303.865C376.515 302.116 376.011 299.996 376.011 297.506V280.851H382.808ZM404.594 294.763C404.594 292.007 405.19 289.556 406.382 287.409C407.575 285.236 409.231 283.554 411.351 282.361C413.497 281.142 415.922 280.533 418.625 280.533C421.937 280.533 424.773 281.407 427.131 283.156C429.49 284.905 431.066 287.29 431.861 290.311H424.389C423.832 289.145 423.037 288.257 422.004 287.648C420.997 287.038 419.844 286.734 418.545 286.734C416.452 286.734 414.756 287.462 413.458 288.92C412.159 290.377 411.51 292.325 411.51 294.763C411.51 297.201 412.159 299.148 413.458 300.606C414.756 302.063 416.452 302.792 418.545 302.792C419.844 302.792 420.997 302.487 422.004 301.878C423.037 301.268 423.832 300.381 424.389 299.215H431.861C431.066 302.236 429.49 304.621 427.131 306.369C424.773 308.092 421.937 308.953 418.625 308.953C415.922 308.953 413.497 308.357 411.351 307.164C409.231 305.945 407.575 304.263 406.382 302.116C405.19 299.97 404.594 297.519 404.594 294.763ZM454.984 303.826H444.57L442.9 308.754H435.785L445.881 280.851H453.752L463.848 308.754H456.653L454.984 303.826ZM453.235 298.579L449.777 288.363L446.358 298.579H453.235ZM481.31 302.792C482.608 302.792 483.761 302.487 484.768 301.878C485.801 301.268 486.596 300.381 487.153 299.215H494.625C493.91 301.891 492.572 304.077 490.611 305.773C488.676 307.443 486.318 308.463 483.536 308.834V310.384C484.914 310.384 486.119 310.755 487.153 311.497C488.186 312.266 488.703 313.405 488.703 314.915C488.703 316.426 488.16 317.565 487.073 318.334C485.987 319.129 484.688 319.526 483.178 319.526H477.057V315.79H482.264C482.794 315.79 483.191 315.71 483.456 315.551C483.721 315.392 483.854 315.127 483.854 314.756C483.854 314.385 483.721 314.12 483.456 313.961C483.191 313.829 482.794 313.763 482.264 313.763H479.441V308.834C477.057 308.569 474.95 307.814 473.121 306.568C471.293 305.296 469.875 303.64 468.868 301.6C467.861 299.559 467.358 297.28 467.358 294.763C467.358 292.007 467.954 289.556 469.147 287.409C470.339 285.236 471.995 283.554 474.115 282.361C476.262 281.142 478.686 280.533 481.389 280.533C484.702 280.533 487.537 281.407 489.895 283.156C492.254 284.905 493.831 287.29 494.625 290.311H487.153C486.596 289.145 485.801 288.257 484.768 287.648C483.761 287.038 482.608 286.734 481.31 286.734C479.216 286.734 477.52 287.462 476.222 288.92C474.923 290.377 474.274 292.325 474.274 294.763C474.274 297.201 474.923 299.148 476.222 300.606C477.52 302.063 479.216 302.792 481.31 302.792ZM517.748 303.826H507.334L505.664 308.754H498.549L508.646 280.851H516.516L526.612 308.754H519.417L517.748 303.826ZM515.999 298.579L512.541 288.363L509.123 298.579H515.999ZM504.631 278.903C505.267 274.981 507.095 273.02 510.116 273.02C510.699 273.02 511.203 273.113 511.627 273.299C512.077 273.458 512.62 273.709 513.256 274.054C513.733 274.319 514.118 274.517 514.409 274.65C514.701 274.756 515.005 274.809 515.323 274.809C516.304 274.809 516.874 274.213 517.033 273.02H520.53C519.894 276.942 518.066 278.903 515.045 278.903C514.462 278.903 513.945 278.824 513.495 278.665C513.071 278.479 512.541 278.214 511.905 277.87C511.428 277.605 511.044 277.419 510.752 277.313C510.461 277.181 510.156 277.114 509.838 277.114C508.858 277.114 508.275 277.711 508.089 278.903H504.631ZM544.471 309.033C541.848 309.033 539.436 308.423 537.237 307.204C535.064 305.985 533.328 304.289 532.03 302.116C530.758 299.917 530.122 297.453 530.122 294.723C530.122 291.994 530.758 289.543 532.03 287.37C533.328 285.197 535.064 283.501 537.237 282.282C539.436 281.063 541.848 280.453 544.471 280.453C547.095 280.453 549.493 281.063 551.666 282.282C553.865 283.501 555.588 285.197 556.833 287.37C558.105 289.543 558.741 291.994 558.741 294.723C558.741 297.453 558.105 299.917 556.833 302.116C555.561 304.289 553.839 305.985 551.666 307.204C549.493 308.423 547.095 309.033 544.471 309.033ZM544.471 302.832C546.697 302.832 548.473 302.09 549.798 300.606C551.149 299.122 551.825 297.161 551.825 294.723C551.825 292.259 551.149 290.298 549.798 288.84C548.473 287.356 546.697 286.614 544.471 286.614C542.219 286.614 540.417 287.343 539.065 288.801C537.741 290.258 537.078 292.232 537.078 294.723C537.078 297.188 537.741 299.162 539.065 300.646C540.417 302.103 542.219 302.832 544.471 302.832ZM594.199 280.851V286.296H586.806V308.754H580.009V286.296H572.615V280.851H594.199ZM605.878 280.851V297.545C605.878 299.215 606.289 300.5 607.11 301.401C607.931 302.302 609.137 302.752 610.727 302.752C612.317 302.752 613.536 302.302 614.384 301.401C615.232 300.5 615.656 299.215 615.656 297.545V280.851H622.453V297.506C622.453 299.996 621.923 302.103 620.863 303.826C619.803 305.548 618.372 306.846 616.57 307.721C614.795 308.595 612.807 309.033 610.608 309.033C608.408 309.033 606.434 308.609 604.685 307.761C602.963 306.886 601.598 305.588 600.591 303.865C599.584 302.116 599.081 299.996 599.081 297.506V280.851H605.878ZM648.889 280.851V286.296H641.496V308.754H634.699V286.296H627.305V280.851H648.889ZM667.087 309.033C664.463 309.033 662.052 308.423 659.853 307.204C657.68 305.985 655.944 304.289 654.645 302.116C653.374 299.917 652.738 297.453 652.738 294.723C652.738 291.994 653.374 289.543 654.645 287.37C655.944 285.197 657.68 283.501 659.853 282.282C662.052 281.063 664.463 280.453 667.087 280.453C669.71 280.453 672.108 281.063 674.281 282.282C676.481 283.501 678.203 285.197 679.449 287.37C680.721 289.543 681.357 291.994 681.357 294.723C681.357 297.453 680.721 299.917 679.449 302.116C678.177 304.289 676.454 305.985 674.281 307.204C672.108 308.423 669.71 309.033 667.087 309.033ZM667.087 302.832C669.313 302.832 671.088 302.09 672.413 300.606C673.765 299.122 674.44 297.161 674.44 294.723C674.44 292.259 673.765 290.298 672.413 288.84C671.088 287.356 669.313 286.614 667.087 286.614C664.834 286.614 663.032 287.343 661.681 288.801C660.356 290.258 659.694 292.232 659.694 294.723C659.694 297.188 660.356 299.162 661.681 300.646C663.032 302.103 664.834 302.832 667.087 302.832ZM700.958 308.754L695.155 298.221H693.525V308.754H686.728V280.851H698.136C700.335 280.851 702.203 281.235 703.74 282.003C705.304 282.772 706.47 283.832 707.238 285.183C708.007 286.508 708.391 287.992 708.391 289.635C708.391 291.49 707.861 293.146 706.801 294.604C705.768 296.061 704.231 297.095 702.19 297.704L708.63 308.754H700.958ZM693.525 293.411H697.738C698.984 293.411 699.911 293.107 700.521 292.497C701.157 291.888 701.475 291.026 701.475 289.913C701.475 288.854 701.157 288.019 700.521 287.409C699.911 286.8 698.984 286.495 697.738 286.495H693.525V293.411ZM721.045 280.851V308.754H714.248V280.851H721.045ZM744.931 303.826H734.517L732.847 308.754H725.732L735.828 280.851H743.698L753.795 308.754H746.6L744.931 303.826ZM743.182 298.579L739.724 288.363L736.305 298.579H743.182ZM765.254 303.508H774.158V308.754H758.457V280.851H765.254V303.508Z" fill="url(#paint0_linear_1055_5719)"/>
<path d="M7.96892 328.18V335.983H17.149V339.541H7.96892V347.688H18.2965V351.245H3.60839V324.623H18.2965V328.18H7.96892ZM47.8032 351.245H43.4427L30.3229 331.393V351.245H25.9624V324.623H30.3229L43.4427 344.437V324.623H47.8032V351.245ZM75.0643 332.311C74.3758 330.985 73.4195 329.991 72.1955 329.328C70.9715 328.639 69.5563 328.295 67.9497 328.295C66.1902 328.295 64.622 328.69 63.245 329.481C61.868 330.271 60.7842 331.393 59.9937 332.847C59.2287 334.3 58.8462 335.983 58.8462 337.896C58.8462 339.808 59.2287 341.504 59.9937 342.983C60.7842 344.437 61.868 345.559 63.245 346.349C64.622 347.14 66.1902 347.535 67.9497 347.535C70.3213 347.535 72.2465 346.872 73.7255 345.546C75.2045 344.22 76.1098 342.422 76.4413 340.153H66.458V336.672H81.1078V340.076C80.8273 342.142 80.0878 344.041 78.8893 345.775C77.7163 347.509 76.1735 348.899 74.261 349.945C72.374 350.965 70.2703 351.475 67.9497 351.475C65.4507 351.475 63.1685 350.901 61.103 349.753C59.0374 348.58 57.3927 346.961 56.1687 344.896C54.9702 342.83 54.3709 340.497 54.3709 337.896C54.3709 335.295 54.9702 332.962 56.1687 330.896C57.3927 328.83 59.0374 327.224 61.103 326.076C63.194 324.903 65.4762 324.317 67.9497 324.317C70.7803 324.317 73.292 325.018 75.485 326.421C77.7036 327.798 79.3101 329.761 80.3046 332.311H75.0643ZM92.0641 328.18V335.983H101.244V339.541H92.0641V347.688H102.392V351.245H87.7036V324.623H102.392V328.18H92.0641ZM131.898 351.245H127.538L114.418 331.393V351.245H110.058V324.623H114.418L127.538 344.437V324.623H131.898V351.245ZM161.148 324.661V351.245H156.788V339.617H144.28V351.245H139.92V324.661H144.28V336.06H156.788V324.661H161.148ZM185.211 345.814H174.08L172.168 351.245H167.616L177.14 324.623H182.189L191.713 351.245H187.123L185.211 345.814ZM183.987 342.256L179.665 329.901L175.304 342.256H183.987ZM211.958 351.245L205.838 340.612H202.51V351.245H198.15V324.661H207.33C209.37 324.661 211.091 325.018 212.493 325.732C213.921 326.446 214.98 327.402 215.668 328.601C216.382 329.799 216.739 331.138 216.739 332.617C216.739 334.351 216.229 335.932 215.209 337.36C214.215 338.763 212.672 339.719 210.581 340.229L217.16 351.245H211.958ZM202.51 337.131H207.33C208.962 337.131 210.186 336.723 211.002 335.907C211.843 335.091 212.264 333.994 212.264 332.617C212.264 331.24 211.856 330.169 211.04 329.404C210.224 328.614 208.987 328.218 207.33 328.218H202.51V337.131ZM228.973 324.661V351.245H224.612V324.661H228.973ZM253.02 345.814H241.889L239.977 351.245H235.425L244.949 324.623H249.998L259.522 351.245H254.932L253.02 345.814ZM251.796 342.256L247.474 329.901L243.113 342.256H251.796ZM286.872 324.661C289.703 324.661 292.177 325.209 294.293 326.306C296.435 327.377 298.08 328.932 299.227 330.972C300.4 332.987 300.987 335.346 300.987 338.049C300.987 340.752 300.4 343.098 299.227 345.087C298.08 347.076 296.435 348.606 294.293 349.677C292.177 350.722 289.703 351.245 286.872 351.245H278.19V324.661H286.872ZM286.872 347.688C289.984 347.688 292.368 346.846 294.025 345.163C295.683 343.48 296.512 341.109 296.512 338.049C296.512 334.963 295.683 332.554 294.025 330.819C292.368 329.085 289.984 328.218 286.872 328.218H282.55V347.688H286.872ZM323.63 345.814H312.5L310.587 351.245H306.035L315.56 324.623H320.609L330.133 351.245H325.543L323.63 345.814ZM322.406 342.256L318.084 329.901L313.724 342.256H322.406ZM347.347 337.896C347.347 335.295 347.946 332.962 349.144 330.896C350.368 328.83 352.013 327.224 354.079 326.076C356.17 324.903 358.452 324.317 360.926 324.317C363.756 324.317 366.268 325.018 368.461 326.421C370.679 327.798 372.286 329.761 373.28 332.311H368.04C367.352 330.909 366.395 329.863 365.171 329.175C363.947 328.486 362.532 328.142 360.926 328.142C359.166 328.142 357.598 328.537 356.221 329.328C354.844 330.118 353.76 331.253 352.969 332.732C352.204 334.211 351.822 335.932 351.822 337.896C351.822 339.859 352.204 341.581 352.969 343.06C353.76 344.539 354.844 345.686 356.221 346.502C357.598 347.293 359.166 347.688 360.926 347.688C362.532 347.688 363.947 347.344 365.171 346.655C366.395 345.967 367.352 344.921 368.04 343.519H373.28C372.286 346.069 370.679 348.032 368.461 349.409C366.268 350.786 363.756 351.475 360.926 351.475C358.426 351.475 356.144 350.901 354.079 349.753C352.013 348.58 350.368 346.961 349.144 344.896C347.946 342.83 347.347 340.497 347.347 337.896ZM392.805 351.513C390.331 351.513 388.049 350.939 385.958 349.792C383.892 348.619 382.248 346.999 381.024 344.934C379.825 342.843 379.226 340.497 379.226 337.896C379.226 335.295 379.825 332.962 381.024 330.896C382.248 328.83 383.892 327.224 385.958 326.076C388.049 324.903 390.331 324.317 392.805 324.317C395.304 324.317 397.586 324.903 399.651 326.076C401.742 327.224 403.387 328.83 404.586 330.896C405.784 332.962 406.384 335.295 406.384 337.896C406.384 340.497 405.784 342.843 404.586 344.934C403.387 346.999 401.742 348.619 399.651 349.792C397.586 350.939 395.304 351.513 392.805 351.513ZM392.805 347.726C394.564 347.726 396.132 347.331 397.509 346.54C398.886 345.724 399.957 344.577 400.722 343.098C401.513 341.593 401.908 339.859 401.908 337.896C401.908 335.932 401.513 334.211 400.722 332.732C399.957 331.253 398.886 330.118 397.509 329.328C396.132 328.537 394.564 328.142 392.805 328.142C391.045 328.142 389.477 328.537 388.1 329.328C386.723 330.118 385.639 331.253 384.849 332.732C384.084 334.211 383.701 335.932 383.701 337.896C383.701 339.859 384.084 341.593 384.849 343.098C385.639 344.577 386.723 345.724 388.1 346.54C389.477 347.331 391.045 347.726 392.805 347.726ZM440.969 324.661V351.245H436.608V333.038L428.499 351.245H425.477L417.33 333.038V351.245H412.969V324.661H417.674L427.007 345.508L436.302 324.661H440.969ZM467.584 332.579C467.584 333.931 467.266 335.206 466.628 336.404C465.991 337.603 464.971 338.584 463.568 339.349C462.166 340.089 460.368 340.459 458.175 340.459H453.355V351.245H448.995V324.661H458.175C460.215 324.661 461.936 325.018 463.339 325.732C464.767 326.421 465.825 327.364 466.513 328.563C467.227 329.761 467.584 331.1 467.584 332.579ZM458.175 336.901C459.832 336.901 461.069 336.532 461.885 335.792C462.701 335.027 463.109 333.956 463.109 332.579C463.109 329.672 461.464 328.218 458.175 328.218H453.355V336.901H458.175ZM478.361 324.661V341.606C478.361 343.621 478.883 345.138 479.929 346.158C481 347.178 482.479 347.688 484.366 347.688C486.278 347.688 487.757 347.178 488.803 346.158C489.874 345.138 490.409 343.621 490.409 341.606V324.661H494.77V341.53C494.77 343.697 494.298 345.533 493.355 347.038C492.411 348.542 491.149 349.664 489.568 350.404C487.987 351.143 486.24 351.513 484.328 351.513C482.415 351.513 480.668 351.143 479.087 350.404C477.532 349.664 476.295 348.542 475.377 347.038C474.459 345.533 474 343.697 474 341.53V324.661H478.361ZM519.917 324.661V328.218H512.84V351.245H508.48V328.218H501.365V324.661H519.917ZM542.655 345.814H531.524L529.611 351.245H525.06L534.584 324.623H539.633L549.157 351.245H544.567L542.655 345.814ZM541.431 342.256L537.108 329.901L532.748 342.256H541.431ZM567.719 347.688C569.325 347.688 570.741 347.344 571.965 346.655C573.189 345.967 574.145 344.921 574.833 343.519H580.074C579.156 345.865 577.728 347.726 575.79 349.103C573.852 350.455 571.608 351.232 569.058 351.436V353.081C570.537 353.081 571.735 353.425 572.653 354.114C573.571 354.828 574.03 355.822 574.03 357.097C574.03 358.372 573.571 359.38 572.653 360.119C571.735 360.884 570.575 361.267 569.172 361.267H564.123V358.513H568.293C569.007 358.513 569.542 358.411 569.899 358.207C570.256 358.003 570.435 357.633 570.435 357.097C570.435 356.562 570.256 356.192 569.899 355.988C569.542 355.784 569.007 355.682 568.293 355.682H566.189V351.398C563.945 351.169 561.905 350.455 560.069 349.256C558.233 348.058 556.779 346.477 555.708 344.513C554.663 342.524 554.14 340.318 554.14 337.896C554.14 335.295 554.739 332.962 555.938 330.896C557.162 328.83 558.806 327.224 560.872 326.076C562.963 324.903 565.245 324.317 567.719 324.317C570.549 324.317 573.061 325.018 575.254 326.421C577.473 327.798 579.079 329.761 580.074 332.311H574.833C574.145 330.909 573.189 329.863 571.965 329.175C570.741 328.486 569.325 328.142 567.719 328.142C565.959 328.142 564.391 328.537 563.014 329.328C561.637 330.118 560.553 331.253 559.763 332.732C558.998 334.211 558.615 335.932 558.615 337.896C558.615 339.859 558.998 341.581 559.763 343.06C560.553 344.539 561.637 345.686 563.014 346.502C564.391 347.293 565.959 347.688 567.719 347.688ZM603.499 345.814H592.369L590.456 351.245H585.904L595.429 324.623H600.478L610.002 351.245H605.412L603.499 345.814ZM602.275 342.256L597.953 329.901L593.593 342.256H602.275ZM591.718 322.443C591.922 320.964 592.407 319.854 593.172 319.115C593.937 318.35 594.893 317.967 596.041 317.967C596.525 317.967 596.946 318.044 597.303 318.197C597.66 318.35 598.093 318.579 598.603 318.885C598.986 319.14 599.305 319.332 599.56 319.459C599.84 319.587 600.146 319.65 600.478 319.65C600.911 319.65 601.268 319.523 601.549 319.268C601.855 318.987 602.046 318.579 602.122 318.044H604.57C604.366 319.523 603.882 320.645 603.117 321.41C602.352 322.149 601.396 322.519 600.248 322.519C599.764 322.519 599.33 322.443 598.948 322.29C598.565 322.111 598.144 321.869 597.685 321.563C597.226 321.282 596.869 321.091 596.614 320.989C596.385 320.862 596.117 320.798 595.811 320.798C595.378 320.798 595.008 320.938 594.702 321.219C594.421 321.499 594.243 321.907 594.166 322.443H591.718ZM628.564 351.513C626.09 351.513 623.808 350.939 621.717 349.792C619.651 348.619 618.006 346.999 616.782 344.934C615.584 342.843 614.985 340.497 614.985 337.896C614.985 335.295 615.584 332.962 616.782 330.896C618.006 328.83 619.651 327.224 621.717 326.076C623.808 324.903 626.09 324.317 628.564 324.317C631.063 324.317 633.345 324.903 635.41 326.076C637.501 327.224 639.146 328.83 640.345 330.896C641.543 332.962 642.142 335.295 642.142 337.896C642.142 340.497 641.543 342.843 640.345 344.934C639.146 346.999 637.501 348.619 635.41 349.792C633.345 350.939 631.063 351.513 628.564 351.513ZM628.564 347.726C630.323 347.726 631.891 347.331 633.268 346.54C634.645 345.724 635.716 344.577 636.481 343.098C637.272 341.593 637.667 339.859 637.667 337.896C637.667 335.932 637.272 334.211 636.481 332.732C635.716 331.253 634.645 330.118 633.268 329.328C631.891 328.537 630.323 328.142 628.564 328.142C626.804 328.142 625.236 328.537 623.859 329.328C622.482 330.118 621.398 331.253 620.607 332.732C619.842 334.211 619.46 335.932 619.46 337.896C619.46 339.859 619.842 341.593 620.607 343.098C621.398 344.577 622.482 345.724 623.859 346.54C625.236 347.331 626.804 347.726 628.564 347.726ZM677.139 335.563V339.235H661.418V335.563H677.139ZM702.183 324.661V341.606C702.183 343.621 702.705 345.138 703.751 346.158C704.822 347.178 706.301 347.688 708.188 347.688C710.1 347.688 711.579 347.178 712.625 346.158C713.696 345.138 714.231 343.621 714.231 341.606V324.661H718.592V341.53C718.592 343.697 718.12 345.533 717.177 347.038C716.233 348.542 714.971 349.664 713.39 350.404C711.809 351.143 710.062 351.513 708.15 351.513C706.237 351.513 704.49 351.143 702.909 350.404C701.354 349.664 700.117 348.542 699.199 347.038C698.281 345.533 697.822 343.697 697.822 341.53V324.661H702.183ZM742.209 324.661V328.218H730.925V336.06H739.723V339.617H730.925V351.245H726.564V324.661H742.209ZM747.091 337.896C747.091 335.295 747.691 332.962 748.889 330.896C750.113 328.83 751.758 327.224 753.823 326.076C755.914 324.903 758.197 324.317 760.67 324.317C763.501 324.317 766.013 325.018 768.206 326.421C770.424 327.798 772.031 329.761 773.025 332.311H767.785C767.096 330.909 766.14 329.863 764.916 329.175C763.692 328.486 762.277 328.142 760.67 328.142C758.911 328.142 757.342 328.537 755.965 329.328C754.588 330.118 753.505 331.253 752.714 332.732C751.949 334.211 751.567 335.932 751.567 337.896C751.567 339.859 751.949 341.581 752.714 343.06C753.505 344.539 754.588 345.686 755.965 346.502C757.342 347.293 758.911 347.688 760.67 347.688C762.277 347.688 763.692 347.344 764.916 346.655C766.14 345.967 767.096 344.921 767.785 343.519H773.025C772.031 346.069 770.424 348.032 768.206 349.409C766.013 350.786 763.501 351.475 760.67 351.475C758.171 351.475 755.889 350.901 753.823 349.753C751.758 348.58 750.113 346.961 748.889 344.896C747.691 342.83 747.091 340.497 747.091 337.896Z" fill="url(#paint1_linear_1055_5719)"/>
<defs>
<linearGradient id="paint0_linear_1055_5719" x1="388" y1="280.754" x2="388" y2="308.754" gradientUnits="userSpaceOnUse">
<stop stop-color="#283038"/>
<stop offset="1" stop-color="#404C59"/>
</linearGradient>
<linearGradient id="paint1_linear_1055_5719" x1="388" y1="324.245" x2="388" y2="351.245" gradientUnits="userSpaceOnUse">
<stop stop-color="#283038"/>
<stop offset="1" stop-color="#404C59"/>
</linearGradient>
</defs>
</svg>
